<svg width="456" height="128" viewBox="0 0 456 128" fill="none" xmlns="http://www.w3.org/2000/svg">
<path d="M61.4682 79.4716C59.8746 79.3589 54.9799 79.3025 46.7841 79.3025C38.5884 79.3025 33.8075 79.528 32.4416 79.9789C26.4086 99.5931 22.9937 113.74 22.1969 122.42C22.1969 122.533 20.774 122.589 17.9282 122.589C15.1963 122.589 12.3506 122.42 9.39098 122.082C3.13033 121.18 0 120.391 0 119.715C0 115.206 4.04097 102.073 12.1229 80.317C10.6431 79.0771 8.93566 76.5407 7.00055 72.7081C5.06544 68.7627 4.09788 65.4936 4.09788 62.9009C4.09788 62.7882 8.82183 62.5627 18.2697 62.2246C27.6038 35.3959 32.8969 21.2488 34.149 19.7834C34.6043 19.4452 36.6533 18.9379 40.2958 18.2616C43.9384 17.4725 46.2719 17.0779 47.2964 17.0779L46.9549 14.8798C46.7272 13.3016 46.4427 11.6107 46.1012 9.80713C45.8735 7.89079 45.7597 6.65081 45.7597 6.08718C45.7597 5.74901 46.7272 5.07265 48.6623 4.05812C54.24 1.35271 59.9884 0 65.9076 0C67.0459 6.65081 68.5257 15.1616 70.347 25.5324C72.2821 35.7904 75.9816 51.5156 81.4454 72.7081C86.9092 93.9005 92.1454 108.668 97.1539 117.009L98.3492 119.038C98.3492 119.602 97.2678 120.56 95.105 121.913C92.9422 123.266 90.0965 124.562 86.5677 125.802C83.039 127.042 79.7949 127.662 76.8353 127.662C75.8108 127.662 73.3065 121.293 69.3225 108.555C65.4523 95.7041 62.8342 86.0097 61.4682 79.4716ZM57.3703 62.0555C53.5001 45.823 51.3943 36.7486 51.0528 34.8322C50.7113 32.9159 50.4267 31.9577 50.199 31.9577C49.9714 31.9577 49.6868 32.1832 49.3453 32.6341C48.3209 34.5504 46.3857 39.1722 43.54 46.4993C40.8081 53.8265 39.0437 58.8992 38.2469 61.7173C50.882 61.7173 57.2565 61.83 57.3703 62.0555Z" fill="url(#paint0_linear_23_58)"/>
<path d="M125.666 6.59445C125.438 9.18714 125.153 16.2889 124.812 27.8996C133.349 27.8996 137.618 28.0687 137.618 28.4069C137.618 32.2395 137.049 35.6777 135.91 38.7213C134.772 41.6521 133.691 43.1176 132.666 43.1176H124.641C124.414 59.801 124.3 73.3844 124.3 83.8679C124.3 94.2387 124.47 101.171 124.812 104.666C125.495 110.528 127.828 115.318 131.813 119.038C131.813 120.278 129.593 122.082 125.153 124.449C120.828 126.816 116.73 128 112.86 128C112.518 128 111.835 127.436 110.811 126.309C109.9 125.182 108.876 123.322 107.737 120.729C106.713 118.136 106.03 115.6 105.689 113.12C105.461 110.64 105.347 101.791 105.347 86.5733C105.347 71.3553 105.518 56.9828 105.859 43.4557L96.2975 43.6248C95.7284 43.0612 95.4438 40.6376 95.4438 36.354C95.4438 31.9577 95.9561 29.3087 96.9805 28.4069C99.4848 28.2941 102.501 28.1814 106.03 28.0687C106.03 21.5306 105.859 17.3034 105.518 15.387C105.176 13.4707 105.006 12.3435 105.006 12.0053C105.006 10.878 106.941 9.58168 110.811 8.11624C114.795 6.65081 118.267 5.91809 121.226 5.91809C124.186 5.91809 125.666 6.14354 125.666 6.59445Z" fill="url(#paint1_linear_23_58)"/>
<path d="M202.232 88.4333C205.533 85.1642 208.321 80.7679 210.598 75.2444C212.875 69.6081 214.013 63.6336 214.013 57.321C214.013 51.0084 212.875 45.6539 210.598 41.2576C208.321 36.7486 205.646 33.3668 202.573 31.1123C199.5 28.745 195.971 26.8287 191.987 25.3633C185.84 23.1088 179.978 21.9815 174.4 21.9815C172.92 21.9815 172.18 22.0379 172.18 22.1506C171.384 22.9397 170.985 36.2413 170.985 62.0555C170.985 87.8697 171.384 101.171 172.18 101.96C172.408 102.186 173.205 102.299 174.571 102.299C176.051 102.299 178.213 101.904 181.059 101.115C184.019 100.326 187.434 98.8604 191.304 96.7186C195.288 94.4641 198.93 91.7023 202.232 88.4333ZM149.301 91.646L149.813 24.856C148.561 22.9397 146.967 19.5579 145.032 14.7107C143.097 9.75077 142.129 6.8199 142.129 5.91809C142.129 4.90356 142.186 4.33993 142.3 4.22721C143.438 3.09995 150.154 2.53633 162.448 2.53633C186.125 2.53633 204.394 7.43989 217.257 17.247C230.234 27.0542 236.722 40.1867 236.722 56.6446C236.722 64.7609 235.413 72.2572 232.795 79.1334C230.177 85.897 226.648 91.646 222.209 96.3804C217.883 101.002 212.988 105.117 207.525 108.724C202.175 112.218 196.483 114.98 190.45 117.009C178.612 120.842 167.855 122.758 158.179 122.758C153.626 122.758 151.008 122.42 150.325 121.744C149.642 121.067 149.301 111.035 149.301 91.646Z" fill="url(#paint2_linear_23_58)"/>
<path d="M292.385 110.922L292.214 107.371L292.043 107.033C289.312 111.204 285.84 114.529 281.628 117.009C277.53 119.489 273.489 120.729 269.505 120.729C257.553 120.729 250.723 111.542 249.016 93.1678C248.788 90.2369 248.674 82.6843 248.674 70.5099C248.674 58.3355 249.186 51.1211 250.211 48.8666C253.17 46.4993 257.951 45.3157 264.553 45.3157C267.172 45.3157 268.765 45.5975 269.334 46.1612C269.334 46.2739 269.277 47.7957 269.164 50.7265C268.594 59.2937 268.31 65.8882 268.31 70.5099C268.31 75.1317 268.367 78.5698 268.481 80.8243C268.594 82.9661 268.651 84.3752 268.651 85.0515C268.765 85.6151 268.936 86.686 269.164 88.2642C269.505 89.8424 269.96 91.1951 270.53 92.3223C272.237 95.5914 274.855 97.2259 278.384 97.2259C282.026 97.2259 285.214 95.4786 287.946 91.9841C290.791 88.3769 292.157 85.8406 292.043 84.3752V78.6261C292.043 57.9973 292.385 46.8939 293.068 45.3157C293.637 44.3012 295.401 43.2303 298.361 42.103C301.434 40.9758 304.451 40.4122 307.41 40.4122C310.37 40.4122 312.078 40.6376 312.533 41.0885L312.191 49.0357C311.508 65.1554 311.167 77.6116 311.167 86.4042C311.167 95.1968 311.395 100.777 311.85 103.144C312.647 108.78 314.183 113.289 316.46 116.671C316.46 117.798 314.126 119.602 309.459 122.082C304.792 124.562 300.808 125.802 297.507 125.802C296.597 125.802 295.572 124.111 294.434 120.729C293.296 117.347 292.613 114.078 292.385 110.922Z" fill="url(#paint3_linear_23_58)"/>
<path d="M359.915 122.251C346.938 122.251 337.319 118.982 331.059 112.444C324.798 105.906 321.668 97.6768 321.668 87.7569C321.668 73.8917 326.335 62.8446 335.669 54.6156C345.117 46.3866 356.614 42.2721 370.159 42.2721C372.777 42.2721 374.314 42.3285 374.769 42.4412C375.452 43.0048 375.794 45.7103 375.794 50.5575C375.794 55.4047 375.111 58.3355 373.745 59.3501H372.55C363.785 59.3501 356.67 61.3791 351.207 65.4372C348.93 67.1281 346.938 69.7772 345.23 73.3844C343.523 76.9916 342.669 81.3316 342.669 86.4042C342.669 91.4769 344.206 95.7041 347.279 99.0859C350.353 102.355 355.304 103.989 362.134 103.989C367.484 103.989 372.208 102.975 376.306 100.946C376.761 100.72 377.046 100.608 377.16 100.608C378.07 101.509 378.526 104.553 378.526 109.738C378.526 114.924 377.9 118.024 376.648 119.038C372.891 121.18 367.313 122.251 359.915 122.251Z" fill="url(#paint4_linear_23_58)"/>
<path d="M392.312 84.5443L391.8 25.8705C391.8 14.9362 392.084 9.18714 392.654 8.62351C394.02 7.2708 396.239 5.97446 399.313 4.73448C402.386 3.49449 405.346 2.8745 408.191 2.8745C411.037 2.8745 412.46 3.09995 412.46 3.55085C412.346 4.11448 412.062 12.0053 411.606 27.2232C411.265 42.4412 411.094 52.3047 411.094 56.8137C411.094 61.21 411.151 63.7464 411.265 64.4227C411.379 64.9863 411.606 65.2682 411.948 65.2682L412.289 65.0991C415.932 61.2664 421.339 56.4756 428.51 50.7265C435.681 44.9775 440.291 42.103 442.34 42.103C449.056 46.2739 452.414 49.6557 452.414 52.2483C448.999 54.3901 444.958 57.321 440.291 61.0409C435.624 64.7609 433.063 67.1281 432.608 68.1427C432.608 69.0445 433.576 72.3135 435.511 77.9498C437.56 83.4734 440.519 90.0114 444.389 97.5641C448.26 105.117 452.13 110.809 456 114.642C456 115.995 453.496 117.686 448.487 119.715C443.479 121.744 439.153 122.758 435.511 122.758C434.145 122.758 431.47 117.46 427.486 106.864C423.615 96.2677 420.94 88.0387 419.461 82.177L419.119 81.6697C418.664 81.6697 417.241 83.3043 414.85 86.5733C412.46 89.8424 411.265 92.0405 411.265 93.1678L411.777 110.415C411.777 114.473 411.549 116.727 411.094 117.178C409.614 118.644 407.053 119.771 403.411 120.56C399.768 121.349 396.751 121.744 394.361 121.744C392.084 121.744 390.946 121.575 390.946 121.236C391.857 116.277 392.312 104.046 392.312 84.5443Z" fill="url(#paint5_linear_23_58)"/>
<defs>
<linearGradient id="paint0_linear_23_58" x1="228" y1="0" x2="228" y2="128" gradientUnits="userSpaceOnUse">
<stop stop-color="#DE7B33"/>
<stop offset="1" stop-color="#DE5833"/>
</linearGradient>
<linearGradient id="paint1_linear_23_58" x1="228" y1="0" x2="228" y2="128" gradientUnits="userSpaceOnUse">
<stop stop-color="#DE7B33"/>
<stop offset="1" stop-color="#DE5833"/>
</linearGradient>
<linearGradient id="paint2_linear_23_58" x1="228" y1="0" x2="228" y2="128" gradientUnits="userSpaceOnUse">
<stop stop-color="#DE7B33"/>
<stop offset="1" stop-color="#DE5833"/>
</linearGradient>
<linearGradient id="paint3_linear_23_58" x1="228" y1="0" x2="228" y2="128" gradientUnits="userSpaceOnUse">
<stop stop-color="#DE7B33"/>
<stop offset="1" stop-color="#DE5833"/>
</linearGradient>
<linearGradient id="paint4_linear_23_58" x1="228" y1="0" x2="228" y2="128" gradientUnits="userSpaceOnUse">
<stop stop-color="#DE7B33"/>
<stop offset="1" stop-color="#DE5833"/>
</linearGradient>
<linearGradient id="paint5_linear_23_58" x1="228" y1="0" x2="228" y2="128" gradientUnits="userSpaceOnUse">
<stop stop-color="#DE7B33"/>
<stop offset="1" stop-color="#DE5833"/>
</linearGradient>
</defs>
</svg>
